<?xml version="1.0" encoding="utf-8"?>
<!-- Generator: Adobe Illustrator 23.0.3, SVG Export Plug-In . SVG Version: 6.00 Build 0)  -->
<svg version="1.1" id="Layer_1" xmlns="http://www.w3.org/2000/svg" xmlns:xlink="http://www.w3.org/1999/xlink" x="0px" y="0px"
	 viewBox="0 0 268 45" style="enable-background:new 0 0 268 45;" xml:space="preserve">
<style type="text/css">
	.st0{fill:#1E90FF;}
</style>
<g>
	<polygon class="st0" points="22.7,0.9 29.7,15.1 45.3,17.3 34,28.4 36.7,44 22.7,36.6 8.7,44 11.3,28.4 0,17.3 15.7,15.1 	"/>
</g>
<g>
	<polygon class="st0" points="78.1,0.9 85.1,15.1 100.7,17.3 89.4,28.4 92.1,44 78.1,36.6 64.1,44 66.8,28.4 55.4,17.3 71.1,15.1 	
		"/>
</g>
<g>
	<polygon class="st0" points="133.5,0.9 140.5,15.1 156.2,17.3 144.8,28.4 147.5,44 133.5,36.6 119.5,44 122.2,28.4 110.8,17.3 
		126.5,15.1 	"/>
</g>
<g>
	<polygon class="st0" points="188.9,0.9 195.9,15.1 211.6,17.3 200.3,28.4 202.9,44 188.9,36.6 174.9,44 177.6,28.4 166.3,17.3 
		181.9,15.1 	"/>
</g>
<g>
	<polygon class="st0" points="244.3,0.9 244.3,36.6 230.3,44 233,28.4 221.7,17.3 237.3,15.1 	"/>
</g>
</svg>
