<svg id="Page-1" xmlns="http://www.w3.org/2000/svg" width="20" height="20" viewBox="0 0 20 20">
  <g id="Desktop-HD" transform="translate(-740 -733)">
    <g id="site_showcase" transform="translate(343 321)">
      <g id="showcase_content">
        <g id="social_icons" transform="translate(293 412)">
          <g id="dribbble_icon" transform="translate(104)">
            <path id="Shape" d="M10,0A10,10,0,1,0,20,10,10,10,0,0,0,10,0Zm6.605,4.61a8.5,8.5,0,0,1,1.931,5.315,20.168,20.168,0,0,0-5.944-.271c-.065-.141-.119-.293-.184-.445-.174-.412-.369-.835-.564-1.236A11.431,11.431,0,0,0,16.605,4.61ZM10,1.475a8.522,8.522,0,0,1,5.662,2.148A9.681,9.681,0,0,1,11.182,6.7a46.111,46.111,0,0,0-3.189-5A8.686,8.686,0,0,1,10,1.475Zm-3.633.8A53.9,53.9,0,0,1,9.534,7.213a32.035,32.035,0,0,1-7.9,1.041A8.581,8.581,0,0,1,6.367,2.278ZM1.453,10.011v-.26a31.209,31.209,0,0,0,8.774-1.215c.249.477.477.965.694,1.453-.108.033-.228.065-.336.1a13.579,13.579,0,0,0-6.941,5.629A8.522,8.522,0,0,1,1.453,10.011ZM10,18.547a8.482,8.482,0,0,1-5.239-1.8,11.727,11.727,0,0,1,6.7-5.336c.022-.011.033-.011.054-.022a35.319,35.319,0,0,1,1.822,6.475A8.4,8.4,0,0,1,10,18.547Zm4.761-1.464A36.754,36.754,0,0,0,13.1,11a12.474,12.474,0,0,1,5.314.369A8.468,8.468,0,0,1,14.761,17.082Z" fill="#fff" fill-rule="evenodd"/>
          </g>
        </g>
      </g>
    </g>
  </g>
</svg>
