<?xml version="1.0" encoding="utf-8"?>
<!-- Generator: Adobe Illustrator 23.0.0, SVG Export Plug-In . SVG Version: 6.00 Build 0)  -->
<svg version="1.1" id="Layer_1" xmlns="http://www.w3.org/2000/svg" xmlns:xlink="http://www.w3.org/1999/xlink" x="0px" y="0px"
	 viewBox="0 0 50 48" style="enable-background:new 0 0 50 48;" xml:space="preserve">
<style type="text/css">
	.st0{fill-rule:evenodd;clip-rule:evenodd;fill:#1E90FF;}
</style>
<title>FRONT END</title>
<desc>Created with Sketch.</desc>
<g id="Website">
	<g id="Home" transform="translate(-695.000000, -1441.000000)">
		<path id="FRONT-END" class="st0" d="M742.6,1485.4c0,0.7-0.5,1.2-1.2,1.2h-42.8c-0.7,0-1.2-0.5-1.2-1.2V1459v-4.8v-1.2h3.6h7.1
			h3.6h3.6h15h12.4v6V1485.4z M698.6,1443.4h2.4h7.1h3.6h3.6h26.2c0.7,0,1.2,0.5,1.2,1.2c0,0,0,0,0,0v6h-27.4h-3.6h-3.6H701h-3.6v-6
			c0,0,0,0,0,0C697.4,1443.9,697.9,1443.4,698.6,1443.4L698.6,1443.4z M745,1444.6C745,1444.6,745,1444.6,745,1444.6l0,14.4v26.4
			c0,2-1.6,3.6-3.6,3.6h-42.8c-2,0-3.6-1.6-3.6-3.6V1459v-4.8v-9.6c0,0,0,0,0,0c0-1.6,1-2.9,2.4-3.4c0.4-0.1,0.8-0.2,1.2-0.2h2.4
			h7.1h3.6h3.6h26.2C743.4,1441,745,1442.6,745,1444.6z M701,1448.2c0.7,0,1.2-0.5,1.2-1.2s-0.5-1.2-1.2-1.2s-1.2,0.5-1.2,1.2
			S700.3,1448.2,701,1448.2z M704.5,1448.2c0.7,0,1.2-0.5,1.2-1.2s-0.5-1.2-1.2-1.2s-1.2,0.5-1.2,1.2S703.9,1448.2,704.5,1448.2z
			 M708.1,1448.2c0.7,0,1.2-0.5,1.2-1.2s-0.5-1.2-1.2-1.2c-0.7,0-1.2,0.5-1.2,1.2S707.4,1448.2,708.1,1448.2z M730.4,1461.8
			c-0.1-0.1-0.1-0.1-0.2-0.1c-0.5-0.3-1.1-0.3-1.5,0.1c-0.5,0.5-0.5,1.2,0,1.7l1.5,1.5l3.5,3.6l-3.5,3.6l-1.5,1.5
			c-0.5,0.5-0.5,1.2,0,1.7c0.4,0.4,1,0.4,1.5,0.1c0.1,0,0.1-0.1,0.2-0.1l5.9-5.9c0.5-0.5,0.5-1.2,0-1.7L730.4,1461.8z M723.5,1457.9
			c-0.4-0.2-0.8-0.1-1.1,0.2c-0.2,0.1-0.4,0.3-0.4,0.5l-0.2,0.4l-4,10.3l-3.6,9.3c-0.2,0.6,0.1,1.3,0.7,1.6s1.3-0.1,1.5-0.7l1.4-3.6
			l4.6-11.9l1.8-4.6c0.1-0.1,0.1-0.3,0.1-0.4C724.2,1458.5,724,1458.1,723.5,1457.9z M711.5,1463.4c0.5-0.5,0.5-1.2,0-1.7
			c-0.5-0.5-1.2-0.5-1.7,0l-1.7,1.7l-4.2,4.2c-0.5,0.5-0.5,1.2,0,1.7l4.2,4.2l1.7,1.7c0.5,0.5,1.2,0.5,1.7,0c0.5-0.5,0.5-1.2,0-1.7
			l-3.4-3.4l-1.7-1.7l1.7-1.7L711.5,1463.4z"/>
	</g>
</g>
</svg>
