<?xml version="1.0" encoding="utf-8"?>
<!-- Generator: Adobe Illustrator 23.0.0, SVG Export Plug-In . SVG Version: 6.00 Build 0)  -->
<svg version="1.1" id="Layer_1" xmlns="http://www.w3.org/2000/svg" xmlns:xlink="http://www.w3.org/1999/xlink" x="0px" y="0px"
	 viewBox="0 0 700 546.5" style="enable-background:new 0 0 700 546.5;" xml:space="preserve">
<style type="text/css">
	.st0{fill:url(#SVGID_1_);}
	.st1{fill:url(#SVGID_2_);}
	.st2{fill:url(#SVGID_3_);}
	.st3{fill:url(#SVGID_4_);}
	.st4{fill:url(#SVGID_5_);}
	.st5{fill:url(#SVGID_6_);}
	.st6{display:none;enable-background:new    ;}
	.st7{font-family:'Poppins-Bold';}
	.st8{font-size:72px;}
	.st9{fill:#031926;}
</style>
<g>
	
		<linearGradient id="SVGID_1_" gradientUnits="userSpaceOnUse" x1="366" y1="268.84" x2="366" y2="494.84" gradientTransform="matrix(1 0 0 -1 0 544.84)">
		<stop  offset="0" style="stop-color:#90EE90"/>
		<stop  offset="1" style="stop-color:#1E90FF"/>
	</linearGradient>
	<polygon class="st0" points="312.5,276 434.5,65 419.5,50 297.5,261 	"/>
	
		<linearGradient id="SVGID_2_" gradientUnits="userSpaceOnUse" x1="341" y1="293.84" x2="341" y2="519.84" gradientTransform="matrix(1 0 0 -1 0 544.84)">
		<stop  offset="0" style="stop-color:#90EE90"/>
		<stop  offset="1" style="stop-color:#1E90FF"/>
	</linearGradient>
	<polygon class="st1" points="287.5,251 409.5,40 394.5,25 272.5,236 	"/>
	
		<linearGradient id="SVGID_3_" gradientUnits="userSpaceOnUse" x1="316" y1="318.84" x2="316" y2="544.84" gradientTransform="matrix(1 0 0 -1 0 544.84)">
		<stop  offset="0" style="stop-color:#90EE90"/>
		<stop  offset="1" style="stop-color:#1E90FF"/>
	</linearGradient>
	<polygon class="st2" points="369.5,0 247.5,211 262.5,226 384.5,15 	"/>
	
		<linearGradient id="SVGID_4_" gradientUnits="userSpaceOnUse" x1="383" y1="93.84" x2="383" y2="319.84" gradientTransform="matrix(1 0 0 -1 0 544.84)">
		<stop  offset="0" style="stop-color:#90EE90"/>
		<stop  offset="1" style="stop-color:#1E90FF"/>
	</linearGradient>
	<polygon class="st3" points="436.5,225 314.5,436 329.5,451 451.5,240 	"/>
	
		<linearGradient id="SVGID_5_" gradientUnits="userSpaceOnUse" x1="358" y1="118.84" x2="358" y2="344.84" gradientTransform="matrix(1 0 0 -1 0 544.84)">
		<stop  offset="0" style="stop-color:#90EE90"/>
		<stop  offset="1" style="stop-color:#1E90FF"/>
	</linearGradient>
	<polygon class="st4" points="411.5,200 289.5,411 304.5,426 426.5,215 	"/>
	
		<linearGradient id="SVGID_6_" gradientUnits="userSpaceOnUse" x1="333" y1="143.84" x2="333" y2="369.84" gradientTransform="matrix(1 0 0 -1 0 544.84)">
		<stop  offset="0" style="stop-color:#90EE90"/>
		<stop  offset="1" style="stop-color:#1E90FF"/>
	</linearGradient>
	<polygon class="st5" points="386.5,175 264.5,386 279.5,401 401.5,190 	"/>
</g>
<text transform="matrix(1 0 0 1 29.4824 441.883)" class="st6 st7 st8">STEVEN JOHNSON</text>
<g>
	<path class="st9" d="M68,539.1c-1.4,2.2-3.4,4-6,5.4c-2.7,1.3-5.9,2-9.7,2c-5.7,0-10.4-1.4-14.1-4.2c-3.7-2.8-5.7-6.7-6-11.6h13.1
		c0.2,1.9,0.9,3.4,2,4.5c1.2,1.1,2.7,1.7,4.5,1.7c1.6,0,2.8-0.4,3.7-1.3s1.4-2,1.4-3.4c0-1.3-0.4-2.4-1.3-3.2s-1.9-1.6-3.1-2.1
		s-3-1.2-5.2-2c-3.2-1.1-5.8-2.2-7.9-3.2s-3.8-2.6-5.2-4.6s-2.2-4.7-2.2-7.9c0-3,0.8-5.6,2.3-7.8s3.7-3.9,6.4-5.1
		c2.7-1.2,5.8-1.8,9.3-1.8c5.7,0,10.2,1.3,13.5,4c3.3,2.7,5.2,6.4,5.7,11H55.8c-0.2-1.7-0.8-3-1.8-4c-1-1-2.3-1.5-4-1.5
		c-1.4,0-2.6,0.4-3.5,1.2c-0.9,0.8-1.3,1.9-1.3,3.4c0,1.2,0.4,2.2,1.2,3c0.8,0.8,1.8,1.5,3,2c1.2,0.5,2.9,1.2,5.2,2
		c3.3,1.1,5.9,2.2,8,3.3c2.1,1.1,3.8,2.6,5.3,4.7c1.5,2.1,2.2,4.7,2.2,8C70.1,534.4,69.4,536.9,68,539.1z"/>
	<path class="st9" d="M113.4,495.3v9.8H99.6v41H87.3v-41H73.6v-9.8H113.4z"/>
	<path class="st9" d="M166.8,495.3l12.4,38.2l12.4-38.2h13.2L187.1,546h-15.9l-17.6-50.7H166.8z"/>
	<path class="st9" d="M293.4,546h-12.3l-20.6-31.1V546h-12.3v-50.7h12.3l20.6,31.4v-31.4h12.3V546z"/>
	<path class="st9" d="M347.6,495.3v34.6c0,5.3-1.5,9.4-4.4,12.3c-2.9,2.9-6.9,4.3-12,4.3c-5.6,0-10-1.6-13.2-4.7
		c-3.3-3.1-4.9-7.6-4.9-13.5h12.2c0,4.7,1.8,7.1,5.4,7.1c3.1,0,4.7-1.8,4.7-5.5v-34.6L347.6,495.3L347.6,495.3z"/>
	<path class="st9" d="M393,497.8c3.9,2.2,7,5.3,9.2,9.2c2.2,3.9,3.4,8.4,3.4,13.4c0,5-1.1,9.4-3.4,13.4s-5.4,7.1-9.3,9.3
		c-3.9,2.2-8.2,3.3-13,3.3s-9.1-1.1-13-3.3c-3.9-2.2-7-5.3-9.3-9.3s-3.4-8.4-3.4-13.4s1.1-9.4,3.4-13.4c2.3-3.9,5.4-7,9.3-9.2
		s8.2-3.3,13-3.3C384.7,494.5,389.1,495.6,393,497.8z M370.3,509.8c-2.4,2.6-3.6,6.2-3.6,10.7c0,4.5,1.2,8,3.6,10.6s5.6,3.9,9.6,3.9
		c4,0,7.2-1.3,9.6-3.9c2.4-2.6,3.6-6.2,3.6-10.6s-1.2-8-3.6-10.6c-2.4-2.6-5.6-3.9-9.6-3.9C375.9,505.9,372.7,507.2,370.3,509.8z"/>
	<path class="st9" d="M510.2,546h-12.3l-20.6-31.1V546H465v-50.7h12.3l20.6,31.4v-31.4h12.3V546z"/>
	<path class="st9" d="M553.2,539.1c-1.4,2.2-3.4,4-6,5.4s-5.9,2-9.7,2c-5.7,0-10.4-1.4-14.1-4.2c-3.7-2.8-5.7-6.7-6-11.6h13.1
		c0.2,1.9,0.9,3.4,2,4.5c1.2,1.1,2.7,1.7,4.5,1.7c1.6,0,2.8-0.4,3.7-1.3s1.4-2,1.4-3.4c0-1.3-0.4-2.4-1.3-3.2s-1.9-1.6-3.1-2.1
		s-3-1.2-5.2-2c-3.2-1.1-5.8-2.2-7.9-3.2s-3.8-2.6-5.2-4.6s-2.2-4.7-2.2-7.9c0-3,0.8-5.6,2.3-7.8c1.5-2.2,3.7-3.9,6.4-5.1
		c2.7-1.2,5.8-1.8,9.3-1.8c5.7,0,10.2,1.3,13.5,4s5.2,6.4,5.7,11H541c-0.2-1.7-0.8-3-1.8-4c-1-1-2.3-1.5-4-1.5
		c-1.4,0-2.6,0.4-3.5,1.2s-1.3,1.9-1.3,3.4c0,1.2,0.4,2.2,1.2,3c0.8,0.8,1.8,1.5,3,2c1.2,0.5,2.9,1.2,5.2,2c3.3,1.1,5.9,2.2,8,3.3
		c2.1,1.1,3.8,2.6,5.3,4.7c1.5,2.1,2.2,4.7,2.2,8C555.2,534.4,554.5,536.9,553.2,539.1z"/>
	<path class="st9" d="M599.3,497.8c3.9,2.2,7,5.3,9.2,9.2c2.2,3.9,3.4,8.4,3.4,13.4c0,5-1.1,9.4-3.4,13.4c-2.3,4-5.4,7.1-9.3,9.3
		c-3.9,2.2-8.2,3.3-13,3.3s-9.1-1.1-13-3.3c-3.9-2.2-7-5.3-9.3-9.3s-3.4-8.4-3.4-13.4s1.1-9.4,3.4-13.4c2.3-3.9,5.4-7,9.3-9.2
		c3.9-2.2,8.2-3.3,13-3.3C591,494.5,595.4,495.6,599.3,497.8z M576.6,509.8c-2.4,2.6-3.6,6.2-3.6,10.7c0,4.5,1.2,8,3.6,10.6
		s5.6,3.9,9.6,3.9c4,0,7.2-1.3,9.6-3.9s3.6-6.2,3.6-10.6s-1.2-8-3.6-10.6c-2.4-2.6-5.6-3.9-9.6-3.9
		C582.2,505.9,579,507.2,576.6,509.8z"/>
	<path class="st9" d="M664,546h-12.3l-20.6-31.1V546h-12.3v-50.7h12.3l20.6,31.4v-31.4H664V546z"/>
</g>
<polygon points="118.6,495.3 118.6,505 118.7,505 122.8,505 150.3,505 150.3,495.3 "/>
<g>
	<polyline points="118.6,536.2 118.6,546 150.3,546 150.3,536.2 121.3,536.2 	"/>
	<polygon points="118.7,524.9 121.3,524.9 148.1,524.9 148.1,515.7 122.8,515.7 118.7,515.7 118.6,515.7 118.6,524.9 	"/>
</g>
<polygon points="209.6,495.3 209.6,505 209.7,505 213.8,505 241.2,505 241.2,495.3 "/>
<g>
	<polyline points="209.6,536.2 209.6,546 241.2,546 241.2,536.2 212.3,536.2 	"/>
	<polygon points="209.7,524.9 212.3,524.9 239.1,524.9 239.1,515.7 213.8,515.7 209.7,515.7 209.6,515.7 209.6,524.9 	"/>
</g>
<g>
	<polygon points="424.8,514.9 424.8,507.8 424.8,495.3 412.5,495.3 412.5,546 424.8,546 424.8,529.1 424.8,524.8 	"/>
	<polygon points="444.1,495.3 444.1,514.9 429.4,514.9 429.4,524.8 444.1,524.8 444.1,546 456.5,546 456.5,495.3 	"/>
</g>
</svg>
