<?xml version="1.0" encoding="utf-8"?>
<!-- Generator: Adobe Illustrator 23.0.0, SVG Export Plug-In . SVG Version: 6.00 Build 0)  -->
<svg version="1.1" id="Layer_2" xmlns="http://www.w3.org/2000/svg" xmlns:xlink="http://www.w3.org/1999/xlink" x="0px" y="0px"
	 viewBox="0 0 204 451" style="enable-background:new 0 0 204 451;" xml:space="preserve">
<style type="text/css">
	.st0{fill:url(#SVGID_1_);}
	.st1{fill:url(#SVGID_2_);}
	.st2{fill:url(#SVGID_3_);}
	.st3{fill:url(#SVGID_4_);}
	.st4{fill:url(#SVGID_5_);}
	.st5{fill:url(#SVGID_6_);}
</style>
<g>
	<linearGradient id="SVGID_1_" gradientUnits="userSpaceOnUse" x1="118" y1="276.5" x2="118" y2="50.5">
		<stop  offset="0" style="stop-color:#90EE90"/>
		<stop  offset="1" style="stop-color:#1E90FF"/>
	</linearGradient>
	<polygon class="st0" points="64.5,276.5 186.5,65.5 171.5,50.5 49.5,261.5 	"/>
	<linearGradient id="SVGID_2_" gradientUnits="userSpaceOnUse" x1="93" y1="251.5" x2="93" y2="25.5">
		<stop  offset="0" style="stop-color:#90EE90"/>
		<stop  offset="1" style="stop-color:#1E90FF"/>
	</linearGradient>
	<polygon class="st1" points="39.5,251.5 161.5,40.5 146.5,25.5 24.5,236.5 	"/>
	<linearGradient id="SVGID_3_" gradientUnits="userSpaceOnUse" x1="68" y1="226.5" x2="68" y2="0.5">
		<stop  offset="0" style="stop-color:#90EE90"/>
		<stop  offset="1" style="stop-color:#1E90FF"/>
	</linearGradient>
	<polygon class="st2" points="121.5,0.5 -0.5,211.5 14.5,226.5 136.5,15.5 	"/>
	<linearGradient id="SVGID_4_" gradientUnits="userSpaceOnUse" x1="135" y1="451.5" x2="135" y2="225.5">
		<stop  offset="0" style="stop-color:#90EE90"/>
		<stop  offset="1" style="stop-color:#1E90FF"/>
	</linearGradient>
	<polygon class="st3" points="188.5,225.5 66.5,436.5 81.5,451.5 203.5,240.5 	"/>
	<linearGradient id="SVGID_5_" gradientUnits="userSpaceOnUse" x1="110" y1="426.5" x2="110" y2="200.5">
		<stop  offset="0" style="stop-color:#90EE90"/>
		<stop  offset="1" style="stop-color:#1E90FF"/>
	</linearGradient>
	<polygon class="st4" points="163.5,200.5 41.5,411.5 56.5,426.5 178.5,215.5 	"/>
	<linearGradient id="SVGID_6_" gradientUnits="userSpaceOnUse" x1="85" y1="401.5" x2="85" y2="175.5">
		<stop  offset="0" style="stop-color:#90EE90"/>
		<stop  offset="1" style="stop-color:#1E90FF"/>
	</linearGradient>
	<polygon class="st5" points="138.5,175.5 16.5,386.5 31.5,401.5 153.5,190.5 	"/>
</g>
</svg>
