<?xml version="1.0" encoding="utf-8"?>
<!-- Generator: Adobe Illustrator 23.0.0, SVG Export Plug-In . SVG Version: 6.00 Build 0)  -->
<svg version="1.1" id="Layer_1" xmlns="http://www.w3.org/2000/svg" xmlns:xlink="http://www.w3.org/1999/xlink" x="0px" y="0px"
	 viewBox="0 0 24 24" style="enable-background:new 0 0 24 24;" xml:space="preserve">
<style type="text/css">
	.st0{fill:#1E90FF;}
	.st1{fill:#FFFFFF;}
	.st2{opacity:0.3;fill:#FFFFFF;enable-background:new    ;}
	.st3{opacity:0.1;fill:#FFFFFF;enable-background:new    ;}
	.st4{fill:url(#SVGID_1_);}
</style>
<g>
	<path class="st0" d="M12,0C5.4,0,0,5.4,0,12s5.4,12,12,12s12-5.4,12-12S18.6,0,12,0z"/>
	<path class="st1" d="M12,1c4.8,0,8.8,3.1,10.4,7.3L22,8.6V8.5C22,7.7,21.3,7,20.5,7h-6c-0.7,0-1.3,0.5-1.5,1.2
		C12.8,8.1,12.4,8,12,8s-0.8,0.1-1,0.2C10.8,7.5,10.2,7,9.5,7h-6C2.7,7,2,7.7,2,8.5v0.1L1.6,8.3C3.2,4.1,7.2,1,12,1z"/>
	<path class="st1" d="M14,8.5C14,8.2,14.2,8,14.5,8h6C20.8,8,21,8.2,21,8.5v3c0,0.8-0.7,1.5-1.5,1.5h-5c-0.3,0-0.5-0.2-0.5-0.5V8.5z
		"/>
	<path class="st1" d="M10,12.5c0,0.3-0.2,0.5-0.5,0.5h-5C3.7,13,3,12.3,3,11.5v-3C3,8.2,3.2,8,3.5,8h6C9.8,8,10,8.2,10,8.5V12.5z"/>
	<path class="st1" d="M12,23C5.9,23,1,18.1,1,12c0-0.9,0.1-1.8,0.3-2.7L2,9.8v1.7C2,12.9,3.1,14,4.5,14h5c0.8,0,1.5-0.7,1.5-1.5v-3
		C11,9.4,11.1,9,12,9s1,0.4,1,0.5v3c0,0.8,0.7,1.5,1.5,1.5h5c1.4,0,2.5-1.1,2.5-2.5V9.8l0.7-0.4c0.2,0.9,0.3,1.7,0.3,2.7
		C23,18.1,18.1,23,12,23z"/>
	<circle class="st0" cx="7" cy="10" r="1"/>
	<circle class="st0" cx="17" cy="10" r="1"/>
	<path class="st2" d="M14,8.5C14,8.2,14.2,8,14.5,8h6C20.8,8,21,8.2,21,8.5v3c0,0.8-0.7,1.5-1.5,1.5h-5c-0.3,0-0.5-0.2-0.5-0.5V8.5z
		"/>
	<path class="st2" d="M10,12.5c0,0.3-0.2,0.5-0.5,0.5h-5C3.7,13,3,12.3,3,11.5v-3C3,8.2,3.2,8,3.5,8h6C9.8,8,10,8.2,10,8.5V12.5z"/>
	<path class="st0" d="M14.2,18.1c-1.4,1.2-3,1.2-4.4,0c-0.2-0.2-0.5-0.1-0.7,0.1c-0.2,0.2-0.1,0.5,0.1,0.7C10.1,19.6,11,20,12,20
		s1.9-0.4,2.8-1.1c0.2-0.2,0.2-0.5,0.1-0.7C14.7,18,14.4,17.9,14.2,18.1z"/>
	<path class="st3" d="M23,12c0-0.9-0.1-1.8-0.3-2.7L22,9.8v1.7c0,0.5-0.2,1-0.5,1.4c-1,5-5.5,8.8-10.8,8.8c-2.7,0-5.2-1-7.1-2.6
		c0,0.1,0.1,0.1,0.2,0.2c0.2,0.2,0.4,0.4,0.6,0.6c0.1,0.1,0.2,0.2,0.3,0.3c0.2,0.2,0.4,0.3,0.5,0.5c0.1,0.1,0.2,0.2,0.4,0.3
		c0.2,0.1,0.4,0.3,0.6,0.4c0.1,0.1,0.3,0.2,0.4,0.2c0.2,0.1,0.4,0.2,0.6,0.3C7.2,21.9,7.4,22,7.5,22c0.2,0.1,0.4,0.2,0.6,0.2
		c0.2,0.1,0.3,0.1,0.5,0.2c0.2,0.1,0.4,0.1,0.7,0.2c0.2,0,0.3,0.1,0.5,0.1c0.2,0.1,0.5,0.1,0.8,0.1c0.1,0,0.3,0,0.4,0.1
		c0.4,0,0.8,0.1,1.2,0.1C18.1,23,23,18.1,23,12z"/>
	<path class="st3" d="M19.4,3.9c-0.1-0.1-0.2-0.2-0.3-0.2c0.9,1,1.5,2.2,2,3.5C21.6,7.4,22,7.9,22,8.5v0.1l0.4-0.2
		c-0.2-0.5-0.4-1-0.6-1.5c0-0.1-0.1-0.1-0.1-0.2c-0.3-0.6-0.8-1.2-1.2-1.8c-0.1-0.1-0.2-0.2-0.2-0.3c-0.1-0.1-0.3-0.3-0.4-0.4
		C19.6,4.1,19.5,4,19.4,3.9z"/>
	
		<linearGradient id="SVGID_1_" gradientUnits="userSpaceOnUse" x1="1.1249" y1="19.0712" x2="22.8751" y2="8.9288" gradientTransform="matrix(1 0 0 -1 0 26)">
		<stop  offset="0" style="stop-color:#FFFFFF;stop-opacity:0.2"/>
		<stop  offset="1" style="stop-color:#FFFFFF;stop-opacity:0"/>
	</linearGradient>
	<path class="st4" d="M12,0C5.4,0,0,5.4,0,12s5.4,12,12,12s12-5.4,12-12S18.6,0,12,0z"/>
</g>
</svg>
