<svg id="Page-1" xmlns="http://www.w3.org/2000/svg" width="24.614" height="20" viewBox="0 0 24.614 20">
  <g id="Desktop-HD" transform="translate(-690 -733)">
    <g id="site_showcase" transform="translate(343 321)">
      <g id="showcase_content">
        <g id="social_icons" transform="translate(293 412)">
          <path id="twitter_icon" d="M61.741,20A14.271,14.271,0,0,0,76.109,5.632c0-.219,0-.436-.015-.653a10.275,10.275,0,0,0,2.519-2.614,10.079,10.079,0,0,1-2.9.795A5.068,5.068,0,0,0,77.933.366a10.12,10.12,0,0,1-3.207,1.226A5.055,5.055,0,0,0,66.121,6.2,14.337,14.337,0,0,1,55.713.922a5.054,5.054,0,0,0,1.563,6.741,5.013,5.013,0,0,1-2.292-.632v.064a5.052,5.052,0,0,0,4.051,4.95,5.042,5.042,0,0,1-2.28.087,5.056,5.056,0,0,0,4.718,3.507A10.133,10.133,0,0,1,55.2,17.8a10.276,10.276,0,0,1-1.2-.073A14.3,14.3,0,0,0,61.741,20" fill="#fff" fill-rule="evenodd"/>
        </g>
      </g>
    </g>
  </g>
</svg>
