<?xml version="1.0" encoding="UTF-8"?>
<svg width="29px" height="20px" viewBox="0 0 29 20" version="1.1" xmlns="http://www.w3.org/2000/svg" xmlns:xlink="http://www.w3.org/1999/xlink">
    <!-- Generator: Sketch 52.5 (67469) - http://www.bohemiancoding.com/sketch -->
    <title>youtube_icon</title>
    <desc>Created with Sketch.</desc>
    <defs>
        <polygon id="path-1" points="0.0096 0.0064 28.16 0.0064 28.16 19.84 0.0096 19.84"></polygon>
    </defs>
    <g id="Page-1" stroke="none" stroke-width="1" fill="none" fill-rule="evenodd">
        <g id="Desktop-HD" transform="translate(-636.000000, -733.000000)">
            <g id="site_showcase" transform="translate(343.000000, 321.000000)">
                <g id="showcase_content">
                    <g id="social_icons" transform="translate(293.000000, 412.000000)">
                        <g id="youtube_icon" transform="translate(0.453605, 0.000000)">
                            <g id="Group-3">
                                <mask id="mask-2" fill="white">
                                    <use xlink:href="#path-1"></use>
                                </mask>
                                <g id="Clip-2"></g>
                                <path d="M27.57152,3.09808 C27.24768,1.87856 26.2936,0.91824 25.08192,0.59232 C22.88592,0 14.08,0 14.08,0 C14.08,0 5.27408,0 3.07808,0.59232 C1.86656,0.91824 0.91232,1.87856 0.58848,3.09808 C0,5.30832 0,9.92 0,9.92 C0,9.92 0,14.53152 0.58848,16.74208 C0.91232,17.96144 1.86656,18.92176 3.07808,19.24784 C5.27408,19.84 14.08,19.84 14.08,19.84 C14.08,19.84 22.88592,19.84 25.08192,19.24784 C26.2936,18.92176 27.24768,17.96144 27.57152,16.74208 C28.16,14.53152 28.16,9.92 28.16,9.92 C28.16,9.92 28.16,5.30832 27.57152,3.09808" id="Fill-1" fill="#031926" mask="url(#mask-2)"></path>
                            </g>
                            <polyline id="Fill-4" fill="#EFEDEB" points="11.2 14.10704 18.56 9.92016 11.2 5.73296 11.2 14.10704"></polyline>
                        </g>
                    </g>
                </g>
            </g>
        </g>
    </g>
</svg>