<svg xmlns="http://www.w3.org/2000/svg" width="28.16" height="19.84" viewBox="0 0 28.16 19.84">
  <g id="Page-1" transform="translate(-0.454)">
    <g id="Desktop-HD" transform="translate(-636 -733)">
      <g id="site_showcase" transform="translate(343 321)">
        <g id="showcase_content">
          <g id="social_icons" transform="translate(293 412)">
            <g id="youtube_icon" transform="translate(0.454)">
              <g id="Group-3">
                <path id="Fill-1" d="M27.572,3.1A3.538,3.538,0,0,0,25.082.592C22.886,0,14.08,0,14.08,0s-8.806,0-11,.592A3.538,3.538,0,0,0,.588,3.1,37.114,37.114,0,0,0,0,9.92a37.118,37.118,0,0,0,.588,6.822,3.539,3.539,0,0,0,2.49,2.506c2.2.592,11,.592,11,.592s8.806,0,11-.592a3.538,3.538,0,0,0,2.49-2.506A37.117,37.117,0,0,0,28.16,9.92,37.113,37.113,0,0,0,27.572,3.1" fill="#fff" fill-rule="evenodd"/>
              </g>
              <path id="Fill-4" d="M11.2,14.107,18.56,9.92,11.2,5.733v8.374" fill="#292a2c" fill-rule="evenodd"/>
            </g>
          </g>
        </g>
      </g>
    </g>
  </g>
</svg>
